<?xml version="1.0" standalone="no"?>
<!DOCTYPE svg PUBLIC "-//W3C//DTD SVG 20010904//EN"
 "http://www.w3.org/TR/2001/REC-SVG-20010904/DTD/svg10.dtd">
<svg version="1.0" xmlns="http://www.w3.org/2000/svg"
 width="640.000000pt" height="1280.000000pt" viewBox="0 0 640.000000 1280.000000"
 preserveAspectRatio="xMidYMid meet">
<metadata>
Created by potrace 1.15, written by Peter Selinger 2001-2017
</metadata>
<g transform="translate(0.000000,1280.000000) scale(0.100000,-0.100000)"
fill="#000000" stroke="none">
<path d="M3095 12791 c-95 -25 -145 -75 -125 -126 6 -15 10 -97 10 -183 l-1
-157 -72 -35 c-92 -45 -122 -84 -112 -150 4 -25 9 -200 11 -390 l4 -345 -30
-18 c-70 -42 -105 -129 -81 -205 7 -23 12 -133 14 -284 2 -210 0 -245 -12
-235 -8 7 -20 25 -27 42 -12 27 -13 14 -14 -110 -1 -338 -11 -1018 -20 -1332
-19 -651 -31 -1039 -40 -1326 -7 -189 -7 -294 0 -306 9 -18 77 -51 103 -51 9
0 12 -465 10 -2202 -2 -1212 -6 -2214 -10 -2228 -10 -31 -1 -1560 9 -1560 4
-1 29 -23 55 -50 l47 -49 187 -598 c182 -577 188 -601 188 -684 1 -47 4 -114
7 -148 7 -60 8 -62 33 -59 l26 3 6 145 6 145 191 608 192 609 42 41 c24 23 48
41 53 40 7 -2 9 1360 7 4075 l-2 4077 26 53 c21 41 25 61 20 90 -8 45 -8 801
0 813 3 5 1 9 -4 9 -5 0 -15 -12 -23 -27 -12 -25 -15 8 -19 287 -6 364 -4 357
-104 424 l-57 38 2 379 c2 424 6 402 -73 459 -23 17 -59 35 -80 42 l-38 11 0
197 c0 220 2 214 -79 255 -39 19 -177 29 -226 16z"/>
</g>
</svg>
