<?xml version="1.0" standalone="no"?>
<!DOCTYPE svg PUBLIC "-//W3C//DTD SVG 20010904//EN"
 "http://www.w3.org/TR/2001/REC-SVG-20010904/DTD/svg10.dtd">
<svg version="1.0" xmlns="http://www.w3.org/2000/svg"
 width="640.000000pt" height="1280.000000pt" viewBox="0 0 640.000000 1280.000000"
 preserveAspectRatio="xMidYMid meet">
<g transform="translate(0.000000,1280.000000) scale(0.100000,-0.100000)"
fill="#000000" stroke="none">
<path d="M5496 12785 c-27 -8 -52 -17 -57 -22 -19 -19 -639 -1467 -631 -1475
17 -17 426 -188 433 -181 4 5 149 338 324 740 l317 733 -27 46 c-42 71 -98
120 -173 148 -74 29 -113 31 -186 11z"/>
<path d="M4365 11317 c-96 -209 -3453 -7963 -3450 -7968 2 -3 268 -120 590
-259 365 -157 590 -249 595 -244 6 6 654 1495 1441 3309 786 1815 1565 3612
1731 3993 165 381 298 698 295 705 -3 9 -1038 466 -1160 513 -14 5 -22 -5 -42
-49z"/>
<path d="M5586 10676 c-32 -74 -57 -139 -54 -146 5 -15 206 -103 222 -97 12 5
132 275 124 282 -6 7 -216 95 -226 95 -5 0 -35 -60 -66 -134z"/>
<path d="M5957 10658 c-3 -7 -300 -694 -661 -1526 -361 -832 -656 -1516 -656
-1520 0 -13 202 -94 211 -85 11 11 1331 3054 1327 3058 -8 8 -193 85 -204 85
-6 0 -14 -6 -17 -12z"/>
<path d="M4653 8142 c-89 -43 -164 -79 -167 -82 -7 -8 108 -371 118 -371 8 0
214 456 231 512 4 12 2 19 -7 18 -7 0 -86 -35 -175 -77z"/>
<path d="M870 3243 c-5 -21 -129 -456 -274 -968 -146 -511 -261 -933 -257
-937 11 -12 698 -308 713 -308 7 0 239 391 515 868 l503 867 -58 27 c-78 36
-1120 488 -1126 488 -3 0 -10 -17 -16 -37z"/>
<path d="M431 1128 c-43 -244 -166 -896 -197 -1038 -5 -22 -4 -23 9 -10 20 20
607 937 607 947 0 9 -377 173 -396 173 -6 0 -16 -33 -23 -72z"/>
</g>
</svg>
